<svg xmlns="http://www.w3.org/2000/svg">
  <defs>
    <!-- email icon -->
    <symbol id="email" viewBox="0 0 512 512">
      <path d="M64 112c-8.8 0-16 7.2-16 16v22.1L220.5 291.7c20.7 17 50.4 17 71.1 0L464 150.1V128c0-8.8-7.2-16-16-16H64zM48 212.2V384c0 8.8 7.2 16 16 16H448c8.8 0 16-7.2 16-16V212.2L322 328.8c-38.4 31.5-93.7 31.5-132 0L48 212.2zM0 128C0 92.7 28.7 64 64 64H448c35.3 0 64 28.7 64 64V384c0 35.3-28.7 64-64 64H64c-35.3 0-64-28.7-64-64V128z" fill="currentColor"/>
    </symbol>

    <!-- pronounspage icon -->
    <symbol id="pronounspage" viewBox="0 0 650 650">
      <path fill="#C71585" d="M396.52 174.35c1.35-2.4.21-4.35-2.54-4.35l-48.2.03c-2.75 0-6.15 1.94-7.54 4.31l-118.1 199.77c-16.48 27.15-39.48 33.15-61.58 30.47-37.94-4.6-58.34-32.45-58.34-69.54 0-37.25 30.31-67.56 67.56-67.56h75c2.75 0 6.12-1.95 7.48-4.34l27.03-47.2c1.37-2.39.23-4.34-2.52-4.34h-107c-68.06 0-123.44 55.37-123.44 123.44 0 32.89 12.85 68.36 36.22 91.54 23.03 22.84 53.8 31.21 86.64 31.89 18.54.21 69.46-.21 93.33-42.68 26.73-47.57 136-241.44 136-241.44zM571.94 244.44c-23.03-22.84-53.8-31.21-86.64-31.89-18.54-.21-69.46.21-93.33 42.68-26.72 47.55-136 241.42-136 241.42-1.35 2.4-.21 4.35 2.54 4.35l48.2-.03c2.75 0 6.15-1.94 7.54-4.31l118.1-199.77c16.48-27.15 39.48-33.15 61.58-30.47 37.94 4.6 58.34 32.45 58.34 69.54 0 37.25-30.31 67.56-67.56 67.56h-75c-2.75 0-6.12 1.95-7.48 4.34l-27.03 47.2c-1.37 2.39-.23 4.34 2.52 4.34h107c68.06 0 123.44-55.37 123.44-123.44 0-32.87-12.85-68.34-36.22-91.52z"/>
    </symbol>

    <!-- github icon -->
    <symbol id="github" viewBox="0 0 98 96">
      <path fill-rule="evenodd" clip-rule="evenodd" d="M48.854 0C21.839 0 0 22 0 49.217c0 21.756 13.993 40.172 33.405 46.69 2.427.49 3.316-1.059 3.316-2.362 0-1.141-.08-5.052-.08-9.127-13.59 2.934-16.42-5.867-16.42-5.867-2.184-5.704-5.42-7.17-5.42-7.17-4.448-3.015.324-3.015.324-3.015 4.934.326 7.523 5.052 7.523 5.052 4.367 7.496 11.404 5.378 14.235 4.074.404-3.178 1.699-5.378 3.074-6.6-10.839-1.141-22.243-5.378-22.243-24.283 0-5.378 1.94-9.778 5.014-13.2-.485-1.222-2.184-6.275.486-13.038 0 0 4.125-1.304 13.426 5.052a46.97 46.97 0 0 1 12.214-1.63c4.125 0 8.33.571 12.213 1.63 9.302-6.356 13.427-5.052 13.427-5.052 2.67 6.763.97 11.816.485 13.038 3.155 3.422 5.015 7.822 5.015 13.2 0 18.905-11.404 23.06-22.324 24.283 1.78 1.548 3.316 4.481 3.316 9.126 0 6.6-.08 11.897-.08 13.526 0 1.304.89 2.853 3.316 2.364 19.412-6.52 33.405-24.935 33.405-46.691C97.707 22 75.788 0 48.854 0z" fill="#24292f"/>
    </symbol>

    <!-- gitlab icon -->
    <symbol id="gitlab" viewBox="0 0 1000 963.197">
      <defs>
        <style>
          .cls-1{fill:#e24329;}
          .cls-2{fill:#fc6d26;}
          .cls-3{fill:#fca326;}
        </style>
      </defs>
      <g transform="matrix(5.2068817,0,0,5.2068817,-489.30756,-507.76085)">
        <path class="cls-1" d="m 282.83,170.73 -0.27,-0.69 -26.14,-68.22 a 6.81,6.81 0 0 0 -2.69,-3.24 7,7 0 0 0 -8,0.43 7,7 0 0 0 -2.32,3.52 l -17.65,54 h -71.47 l -17.65,-54 a 6.86,6.86 0 0 0 -2.32,-3.53 7,7 0 0 0 -8,-0.43 6.87,6.87 0 0 0 -2.69,3.24 L 97.44,170 l -0.26,0.69 a 48.54,48.54 0 0 0 16.1,56.1 l 0.09,0.07 0.24,0.17 39.82,29.82 19.7,14.91 12,9.06 a 8.07,8.07 0 0 0 9.76,0 l 12,-9.06 19.7,-14.91 40.06,-30 0.1,-0.08 a 48.56,48.56 0 0 0 16.08,-56.04 z" id="path76"/>
        <path class="cls-2" d="m 282.83,170.73 -0.27,-0.69 a 88.3,88.3 0 0 0 -35.15,15.8 L 190,229.25 c 19.55,14.79 36.57,27.64 36.57,27.64 l 40.06,-30 0.1,-0.08 a 48.56,48.56 0 0 0 16.1,-56.08 z" id="path78"/>
        <path class="cls-3" d="m 153.43,256.89 19.7,14.91 12,9.06 a 8.07,8.07 0 0 0 9.76,0 l 12,-9.06 19.7,-14.91 c 0,0 -17.04,-12.89 -36.59,-27.64 -19.55,14.75 -36.57,27.64 -36.57,27.64 z" id="path80"/>
        <path class="cls-2" d="M 132.58,185.84 A 88.19,88.19 0 0 0 97.44,170 l -0.26,0.69 a 48.54,48.54 0 0 0 16.1,56.1 l 0.09,0.07 0.24,0.17 39.82,29.82 c 0,0 17,-12.85 36.57,-27.64 z" id="path82"/>
      </g>
    </symbol>

    <!-- gdev icon -->
    <symbol id="gdev" viewBox="0 -65.5 256 256">
      <path d="M184.31481,67.7044587 C197.78381,59.9684587 211.21681,52.1694587 224.73181,44.5134587 C237.55981,37.2454587 252.65281,43.9484587 255.56081,58.0924587 C257.24381,66.2744587 253.59081,75.1134587 246.20381,79.4184587 C221.98581,93.5314587 197.73281,107.588459 173.35881,121.430459 C165.81481,125.714459 158.04381,124.926459 151.16881,119.676459 C144.18481,114.346459 141.98381,106.994459 143.62181,98.4374587 C145.49181,91.9234587 149.77181,87.5684587 155.60881,84.3104587 C165.25981,78.9244587 174.75381,73.2544587 184.31481,67.7044587" fill="#FABC05"></path>
      <path d="M194.20341,62.0789587 C180.76841,54.2829587 167.29941,46.5479587 153.91141,38.6729587 C141.20241,31.1969587 139.46241,14.7749587 150.25641,5.18295871 C156.50041,-0.364041286 165.98141,-1.62104129 173.40341,2.62395871 C197.73541,16.5409587 222.03541,30.5169587 246.20941,44.7039587 C253.69141,49.0949587 256.89341,56.2199587 255.78641,64.7989587 C254.66141,73.5109587 249.39541,79.0929587 241.16641,81.9539587 C234.58941,83.5919587 228.67841,82.0619587 222.93841,78.6359587 C213.44741,72.9709587 203.79041,67.5829587 194.20341,62.0789587" fill="#109D58"></path>
      <path d="M71.7518102,56.5628587 C63.1308102,61.4608587 54.5048102,66.3498587 45.8928102,71.2628587 C40.8548102,74.1368587 35.8728102,77.1088587 30.8088102,79.9348587 C20.6058102,85.6298587 8.48381017,82.2918587 2.69881017,72.2608587 C-2.82218983,62.6888587 0.35081017,50.2788587 10.1768102,44.5428587 C34.2018102,30.5198587 58.2888102,16.5988587 82.4628102,2.83385871 C89.8768102,-1.38814129 97.5688102,-0.857141286 104.42481,4.18985871 C111.66081,9.51685871 114.02981,17.0128587 112.40481,25.8008587 C111.39681,27.9268587 110.79481,30.4198587 109.28581,32.0948587 C106.83081,34.8198587 104.04081,37.4288587 100.93481,39.3448587 C91.3228102,45.2718587 81.4958102,50.8498587 71.7518102,56.5628587" fill="#E94436"></path>
      <path d="M61.8670102,62.0569587 C70.4200102,67.0729587 78.9670102,72.0999587 87.5280102,77.1019587 C92.5350102,80.0279587 97.6000102,82.8569587 102.57901,85.8279587 C112.61301,91.8179587 115.78401,103.983959 109.98901,114.008959 C104.45901,123.576959 92.1260102,127.034959 82.2450102,121.391959 C58.0880102,107.596959 33.9890102,93.6989587 9.98101017,79.6459587 C2.61801017,75.3359587 -0.76798983,68.4089587 0.17501017,59.9479587 C1.17001017,51.0169587 6.47701017,45.2179587 14.9000102,42.2309587 C17.2450102,42.0419587 19.7050102,41.3159587 21.9110102,41.7859587 C25.4980102,42.5499587 29.1530102,43.6609587 32.3650102,45.3929587 C42.3040102,50.7529587 52.0480102,56.4749587 61.8670102,62.0569587" fill="#4385F3"></path>
    </symbol>

    <!-- discord icon -->
    <symbol id="discord" viewBox="0 0 127.14 96.36">
      <path fill="#5865f2" d="M107.7,8.07A105.15,105.15,0,0,0,81.47,0a72.06,72.06,0,0,0-3.36,6.83A97.68,97.68,0,0,0,49,6.83,72.37,72.37,0,0,0,45.64,0,105.89,105.89,0,0,0,19.39,8.09C2.79,32.65-1.71,56.6.54,80.21h0A105.73,105.73,0,0,0,32.71,96.36,77.7,77.7,0,0,0,39.6,85.25a68.42,68.42,0,0,1-10.85-5.18c.91-.66,1.8-1.34,2.66-2a75.57,75.57,0,0,0,64.32,0c.87.71,1.76,1.39,2.66,2a68.68,68.68,0,0,1-10.87,5.19,77,77,0,0,0,6.89,11.1A105.25,105.25,0,0,0,126.6,80.22h0C129.24,52.84,122.09,29.11,107.7,8.07ZM42.45,65.69C36.18,65.69,31,60,31,53s5-12.74,11.43-12.74S54,46,53.89,53,48.84,65.69,42.45,65.69Zm42.24,0C78.41,65.69,73.25,60,73.25,53s5-12.74,11.44-12.74S96.23,46,96.12,53,91.08,65.69,84.69,65.69Z"/>
    </symbol>

    <!-- telegram icon -->
    <symbol id="telegram" viewBox="0 0 1000 1000">
      <defs>
        <linearGradient x1="50%" y1="0%" x2="50%" y2="99.2583404%" id="linearGradient-1">
            <stop stop-color="#2AABEE" offset="0%"></stop>
            <stop stop-color="#229ED9" offset="100%"></stop>
        </linearGradient>
      </defs>
      <g id="Artboard" stroke="none" stroke-width="1" fill="none" fill-rule="evenodd">
        <circle id="Oval" fill="url(#linearGradient-1)" cx="500" cy="500" r="500"></circle>
        <path d="M226.328419,494.722069 C372.088573,431.216685 469.284839,389.350049 517.917216,369.122161 C656.772535,311.36743 685.625481,301.334815 704.431427,301.003532 C708.567621,300.93067 717.815839,301.955743 723.806446,306.816707 C728.864797,310.92121 730.256552,316.46581 730.922551,320.357329 C731.588551,324.248848 732.417879,333.113828 731.758626,340.040666 C724.234007,419.102486 691.675104,610.964674 675.110982,699.515267 C668.10208,736.984342 654.301336,749.547532 640.940618,750.777006 C611.904684,753.448938 589.856115,731.588035 561.733393,713.153237 C517.726886,684.306416 492.866009,666.349181 450.150074,638.200013 C400.78442,605.66878 432.786119,587.789048 460.919462,558.568563 C468.282091,550.921423 596.21508,434.556479 598.691227,424.000355 C599.00091,422.680135 599.288312,417.758981 596.36474,415.160431 C593.441168,412.561881 589.126229,413.450484 586.012448,414.157198 C581.598758,415.158943 511.297793,461.625274 375.109553,553.556189 C355.154858,567.258623 337.080515,573.934908 320.886524,573.585046 C303.033948,573.199351 268.692754,563.490928 243.163606,555.192408 C211.851067,545.013936 186.964484,539.632504 189.131547,522.346309 C190.260287,513.342589 202.659244,504.134509 226.328419,494.722069 Z" id="Path-3" fill="#FFFFFF"></path>
      </g>
    </symbol>

    <!-- twitter icon -->
    <symbol id="twitter-x" viewBox="0 0 512 512">
      <path fill="white" d="M389.2 48h70.6L305.6 224.2 487 464H345L233.7 318.6 106.5 464H35.8L200.7 275.5 26.8 48H172.4L272.9 180.9 389.2 48zM364.4 421.8h39.1L151.1 88h-42L364.4 421.8z"/>
    </symbol>

    <!-- instagram icon -->
    <symbol id="instagram" viewBox="0 0 32 32">
      <path d="M23 10.5C23 11.3284 22.3284 12 21.5 12C20.6716 12 20 11.3284 20 10.5C20 9.67157 20.6716 9 21.5 9C22.3284 9 23 9.67157 23 10.5Z" fill="white"/>
      <path fill-rule="evenodd" clip-rule="evenodd" d="M16 21C18.7614 21 21 18.7614 21 16C21 13.2386 18.7614 11 16 11C13.2386 11 11 13.2386 11 16C11 18.7614 13.2386 21 16 21ZM16 19C17.6569 19 19 17.6569 19 16C19 14.3431 17.6569 13 16 13C14.3431 13 13 14.3431 13 16C13 17.6569 14.3431 19 16 19Z" fill="white"/>
      <path fill-rule="evenodd" clip-rule="evenodd" d="M6 15.6C6 12.2397 6 10.5595 6.65396 9.27606C7.2292 8.14708 8.14708 7.2292 9.27606 6.65396C10.5595 6 12.2397 6 15.6 6H16.4C19.7603 6 21.4405 6 22.7239 6.65396C23.8529 7.2292 24.7708 8.14708 25.346 9.27606C26 10.5595 26 12.2397 26 15.6V16.4C26 19.7603 26 21.4405 25.346 22.7239C24.7708 23.8529 23.8529 24.7708 22.7239 25.346C21.4405 26 19.7603 26 16.4 26H15.6C12.2397 26 10.5595 26 9.27606 25.346C8.14708 24.7708 7.2292 23.8529 6.65396 22.7239C6 21.4405 6 19.7603 6 16.4V15.6ZM15.6 8H16.4C18.1132 8 19.2777 8.00156 20.1779 8.0751C21.0548 8.14674 21.5032 8.27659 21.816 8.43597C22.5686 8.81947 23.1805 9.43139 23.564 10.184C23.7234 10.4968 23.8533 10.9452 23.9249 11.8221C23.9984 12.7223 24 13.8868 24 15.6V16.4C24 18.1132 23.9984 19.2777 23.9249 20.1779C23.8533 21.0548 23.7234 21.5032 23.564 21.816C23.1805 22.5686 22.5686 23.1805 21.816 23.564C21.5032 23.7234 21.0548 23.8533 20.1779 23.9249C19.2777 23.9984 18.1132 24 16.4 24H15.6C13.8868 24 12.7223 23.9984 11.8221 23.9249C10.9452 23.8533 10.4968 23.7234 10.184 23.564C9.43139 23.1805 8.81947 22.5686 8.43597 21.816C8.27659 21.5032 8.14674 21.0548 8.0751 20.1779C8.00156 19.2777 8 18.1132 8 16.4V15.6C8 13.8868 8.00156 12.7223 8.0751 11.8221C8.14674 10.9452 8.27659 10.4968 8.43597 10.184C8.81947 9.43139 9.43139 8.81947 10.184 8.43597C10.4968 8.27659 10.9452 8.14674 11.8221 8.0751C12.7223 8.00156 13.8868 8 15.6 8Z" fill="white"/>
    </symbol>

    <!-- mastodon icon -->
    <symbol id="mastodon" viewBox="0 0 75 79">
      <path d="M73.8393 17.4898C72.6973 9.00165 65.2994 2.31235 56.5296 1.01614C55.05 0.797115 49.4441 0 36.4582 0H36.3612C23.3717 0 20.585 0.797115 19.1054 1.01614C10.5798 2.27644 2.79399 8.28712 0.904997 16.8758C-0.00358524 21.1056 -0.100549 25.7949 0.0682394 30.0965C0.308852 36.2651 0.355538 42.423 0.91577 48.5665C1.30307 52.6474 1.97872 56.6957 2.93763 60.6812C4.73325 68.042 12.0019 74.1676 19.1233 76.6666C26.7478 79.2728 34.9474 79.7055 42.8039 77.9162C43.6682 77.7151 44.5217 77.4817 45.3645 77.216C47.275 76.6092 49.5123 75.9305 51.1571 74.7385C51.1797 74.7217 51.1982 74.7001 51.2112 74.6753C51.2243 74.6504 51.2316 74.6229 51.2325 74.5948V68.6416C51.2321 68.6154 51.2259 68.5896 51.2142 68.5661C51.2025 68.5426 51.1858 68.522 51.1651 68.5058C51.1444 68.4896 51.1204 68.4783 51.0948 68.4726C51.0692 68.4669 51.0426 68.467 51.0171 68.4729C45.9835 69.675 40.8254 70.2777 35.6502 70.2682C26.7439 70.2682 24.3486 66.042 23.6626 64.2826C23.1113 62.762 22.7612 61.1759 22.6212 59.5646C22.6197 59.5375 22.6247 59.5105 22.6357 59.4857C22.6466 59.4609 22.6633 59.4391 22.6843 59.422C22.7053 59.4048 22.73 59.3929 22.7565 59.3871C22.783 59.3813 22.8104 59.3818 22.8367 59.3886C27.7864 60.5826 32.8604 61.1853 37.9522 61.1839C39.1768 61.1839 40.3978 61.1839 41.6224 61.1516C46.7435 61.008 52.1411 60.7459 57.1796 59.7621C57.3053 59.7369 57.431 59.7154 57.5387 59.6831C65.4861 58.157 73.0493 53.3672 73.8178 41.2381C73.8465 40.7606 73.9184 36.2364 73.9184 35.7409C73.9219 34.0569 74.4606 23.7949 73.8393 17.4898Z" fill="url(#paint0_linear_549_34)"/>
      <path d="M61.2484 27.0263V48.114H52.8916V27.6475C52.8916 23.3388 51.096 21.1413 47.4437 21.1413C43.4287 21.1413 41.4177 23.7409 41.4177 28.8755V40.0782H33.1111V28.8755C33.1111 23.7409 31.0965 21.1413 27.0815 21.1413C23.4507 21.1413 21.6371 23.3388 21.6371 27.6475V48.114H13.2839V27.0263C13.2839 22.7176 14.384 19.2946 16.5843 16.7572C18.8539 14.2258 21.8311 12.926 25.5264 12.926C29.8036 12.926 33.0357 14.5705 35.1905 17.8559L37.2698 21.346L39.3527 17.8559C41.5074 14.5705 44.7395 12.926 49.0095 12.926C52.7013 12.926 55.6784 14.2258 57.9553 16.7572C60.1531 19.2922 61.2508 22.7152 61.2484 27.0263Z" fill="white"/>
      <defs>
        <linearGradient id="paint0_linear_549_34" x1="37.0692" y1="0" x2="37.0692" y2="79" gradientUnits="userSpaceOnUse">
          <stop stop-color="#6364FF"/>
          <stop offset="1" stop-color="#563ACC"/>
        </linearGradient>
      </defs>
    </symbol>

    <!-- reddit icon -->
    <symbol id="reddit" viewBox="0 0 256 256">
      <style">
        .cls-1 {fill: #fff;}
        .cls-1, .cls-2 {stroke-width: 0px;}
        .cls-2 {fill: #ff4500;}
      </style>
      <path class="cls-2" d="m128,0h0C57.31,0,0,57.31,0,128h0c0,35.35,14.33,67.35,37.49,90.51l-24.38,24.38c-4.84,4.84-1.41,13.11,5.43,13.11h109.46s0,0,0,0c70.69,0,128-57.31,128-128h0C256,57.31,198.69,0,128,0Z"/>
      <path class="cls-1" d="m154.04,60.36c2.22,9.41,10.67,16.42,20.76,16.42,11.78,0,21.33-9.55,21.33-21.33s-9.55-21.33-21.33-21.33c-10.3,0-18.89,7.3-20.89,17.01-17.25,1.85-30.72,16.48-30.72,34.21,0,.04,0,.07,0,.11-18.76.79-35.89,6.13-49.49,14.56-5.05-3.91-11.39-6.24-18.27-6.24-16.51,0-29.89,13.38-29.89,29.89,0,11.98,7.04,22.3,17.21,27.07.99,34.7,38.8,62.61,85.31,62.61s84.37-27.94,85.31-62.67c10.09-4.8,17.07-15.09,17.07-27,0-16.51-13.38-29.89-29.89-29.89-6.85,0-13.16,2.31-18.2,6.19-13.72-8.49-31.04-13.83-49.99-14.54,0-.03,0-.05,0-.08,0-12.7,9.44-23.24,21.68-24.97Zm-81.54,82.27c.5-10.84,7.7-19.16,16.07-19.16s14.77,8.79,14.27,19.63c-.5,10.84-6.75,14.78-15.13,14.78s-15.71-4.41-15.21-15.25Zm95.06-19.16c8.38,0,15.58,8.32,16.07,19.16.5,10.84-6.84,15.25-15.21,15.25s-14.63-3.93-15.13-14.78c-.5-10.84,5.89-19.63,14.27-19.63Zm-9.96,44.24c1.57.16,2.57,1.79,1.96,3.25-5.15,12.31-17.31,20.96-31.5,20.96s-26.34-8.65-31.5-20.96c-.61-1.46.39-3.09,1.96-3.25,9.2-.93,19.15-1.44,29.54-1.44s20.33.51,29.54,1.44Z"/>
    </symbol>

    <!-- messenger icon -->
    <symbol id="messenger" viewBox="0 0 800 800">
      <radialGradient id="a" cx="101.9" cy="809" r="1.1" gradientTransform="matrix(800 0 0 -800 -81386 648000)" gradientUnits="userSpaceOnUse"><stop offset="0" style="stop-color:#09f"/><stop offset=".6" style="stop-color:#a033ff"/><stop offset=".9" style="stop-color:#ff5280"/><stop offset="1" style="stop-color:#ff7061"/></radialGradient>
      <path fill="url(#a)" d="M400 0C174.7 0 0 165.1 0 388c0 116.6 47.8 217.4 125.6 287 6.5 5.8 10.5 14 10.7 22.8l2.2 71.2a32 32 0 0 0 44.9 28.3l79.4-35c6.7-3 14.3-3.5 21.4-1.6 36.5 10 75.3 15.4 115.8 15.4 225.3 0 400-165.1 400-388S625.3 0 400 0z"/>
      <path fill="#FFF" d="m159.8 501.5 117.5-186.4a60 60 0 0 1 86.8-16l93.5 70.1a24 24 0 0 0 28.9-.1l126.2-95.8c16.8-12.8 38.8 7.4 27.6 25.3L522.7 484.9a60 60 0 0 1-86.8 16l-93.5-70.1a24 24 0 0 0-28.9.1l-126.2 95.8c-16.8 12.8-38.8-7.3-27.5-25.2z"/>
    </symbol>

    <!-- zalo icon -->
    <symbol id="zalo" viewBox="0 0 50 50">
      <path fill-rule="evenodd" clip-rule="evenodd" d="M22.782 0.166016H27.199C33.2653 0.166016 36.8103 1.05701 39.9572 2.74421C43.1041 4.4314 45.5875 6.89585 47.2557 10.0428C48.9429 13.1897 49.8339 16.7347 49.8339 22.801V27.1991C49.8339 33.2654 48.9429 36.8104 47.2557 39.9573C45.5685 43.1042 43.1041 45.5877 39.9572 47.2559C36.8103 48.9431 33.2653 49.8341 27.199 49.8341H22.8009C16.7346 49.8341 13.1896 48.9431 10.0427 47.2559C6.89583 45.5687 4.41243 43.1042 2.7442 39.9573C1.057 36.8104 0.166016 33.2654 0.166016 27.1991V22.801C0.166016 16.7347 1.057 13.1897 2.7442 10.0428C4.43139 6.89585 6.89583 4.41245 10.0427 2.74421C13.1707 1.05701 16.7346 0.166016 22.782 0.166016Z" fill="#0068FF"/>
      <path opacity="0.12" fill-rule="evenodd" clip-rule="evenodd" d="M49.8336 26.4736V27.1994C49.8336 33.2657 48.9427 36.8107 47.2555 39.9576C45.5683 43.1045 43.1038 45.5879 39.9569 47.2562C36.81 48.9434 33.265 49.8344 27.1987 49.8344H22.8007C17.8369 49.8344 14.5612 49.2378 11.8104 48.0966L7.27539 43.4267L49.8336 26.4736Z" fill="#001A33"/>
      <path fill-rule="evenodd" clip-rule="evenodd" d="M7.779 43.5892C10.1019 43.846 13.0061 43.1836 15.0682 42.1825C24.0225 47.1318 38.0197 46.8954 46.4923 41.4732C46.8209 40.9803 47.1279 40.4677 47.4128 39.9363C49.1062 36.7779 50.0004 33.22 50.0004 27.1316V22.7175C50.0004 16.629 49.1062 13.0711 47.4128 9.91273C45.7385 6.75436 43.2461 4.28093 40.0877 2.58758C36.9293 0.894239 33.3714 0 27.283 0H22.8499C17.6644 0 14.2982 0.652754 11.4699 1.89893C11.3153 2.03737 11.1636 2.17818 11.0151 2.32135C2.71734 10.3203 2.08658 27.6593 9.12279 37.0782C9.13064 37.0921 9.13933 37.1061 9.14889 37.1203C10.2334 38.7185 9.18694 41.5154 7.55068 43.1516C7.28431 43.399 7.37944 43.5512 7.779 43.5892Z" fill="white"/>
      <path d="M20.5632 17H10.8382V19.0853H17.5869L10.9329 27.3317C10.7244 27.635 10.5728 27.9194 10.5728 28.5639V29.0947H19.748C20.203 29.0947 20.5822 28.7156 20.5822 28.2606V27.1421H13.4922L19.748 19.2938C19.8428 19.1801 20.0134 18.9716 20.0893 18.8768L20.1272 18.8199C20.4874 18.2891 20.5632 17.8341 20.5632 17.2844V17Z" fill="#0068FF"/>
      <path d="M32.9416 29.0947H34.3255V17H32.2402V28.3933C32.2402 28.7725 32.5435 29.0947 32.9416 29.0947Z" fill="#0068FF"/>
      <path d="M25.814 19.6924C23.1979 19.6924 21.0747 21.8156 21.0747 24.4317C21.0747 27.0478 23.1979 29.171 25.814 29.171C28.4301 29.171 30.5533 27.0478 30.5533 24.4317C30.5723 21.8156 28.4491 19.6924 25.814 19.6924ZM25.814 27.2184C24.2785 27.2184 23.0273 25.9672 23.0273 24.4317C23.0273 22.8962 24.2785 21.645 25.814 21.645C27.3495 21.645 28.6007 22.8962 28.6007 24.4317C28.6007 25.9672 27.3685 27.2184 25.814 27.2184Z" fill="#0068FF"/>
      <path d="M40.4867 19.6162C37.8516 19.6162 35.7095 21.7584 35.7095 24.3934C35.7095 27.0285 37.8516 29.1707 40.4867 29.1707C43.1217 29.1707 45.2639 27.0285 45.2639 24.3934C45.2639 21.7584 43.1217 19.6162 40.4867 19.6162ZM40.4867 27.2181C38.9322 27.2181 37.681 25.9669 37.681 24.4124C37.681 22.8579 38.9322 21.6067 40.4867 21.6067C42.0412 21.6067 43.2924 22.8579 43.2924 24.4124C43.2924 25.9669 42.0412 27.2181 40.4867 27.2181Z" fill="#0068FF"/>
      <path d="M29.4562 29.0944H30.5747V19.957H28.6221V28.2793C28.6221 28.7153 29.0012 29.0944 29.4562 29.0944Z" fill="#0068FF"/>
    </symbol>

    <!-- vk icon -->
    <symbol id="vk" viewBox="0 0 48 48">
      <path d="M0 23.04C0 12.1788 0 6.74826 3.37413 3.37413C6.74826 0 12.1788 0 23.04 0H24.96C35.8212 0 41.2517 0 44.6259 3.37413C48 6.74826 48 12.1788 48 23.04V24.96C48 35.8212 48 41.2517 44.6259 44.6259C41.2517 48 35.8212 48 24.96 48H23.04C12.1788 48 6.74826 48 3.37413 44.6259C0 41.2517 0 35.8212 0 24.96V23.04Z" fill="#0077FF"/>
      <path d="M25.54 34.5801C14.6 34.5801 8.3601 27.0801 8.1001 14.6001H13.5801C13.7601 23.7601 17.8 27.6401 21 28.4401V14.6001H26.1602V22.5001C29.3202 22.1601 32.6398 18.5601 33.7598 14.6001H38.9199C38.0599 19.4801 34.4599 23.0801 31.8999 24.5601C34.4599 25.7601 38.5601 28.9001 40.1201 34.5801H34.4399C33.2199 30.7801 30.1802 27.8401 26.1602 27.4401V34.5801H25.54Z" fill="white"/>
    </symbol>

    <!-- xiaohongshu icon -->
    <symbol id="xiaohongshu" viewBox="0 0 40 40">
      <path fill="#6366f1" d="M37.2,27.4c-1.8,0-2-0.1-2.4-2c0.2,0,0.3,0,0.5-0.1c0.6-0.1,1.8-0.1,1.8-0.4c0.2-1,0.1-2,0.1-3 c0-0.2-0.5-0.4-0.8-0.5c-1.4,0-2.8,0-4.4,0c0,1.5,0,2.8,0,4.2c0,1.9,0.2,1.7-1.7,1.7c-0.2,0-0.5,0-0.8,0c0-2,0-3.9,0-6 c-1,0-1.8,0-2.8,0c0-0.9,0-1.7,0-2.6c0.9,0,1.7,0,2.5,0c0.5-2.2,0.3-2.5-1.6-2.8c0-0.3,0-0.6,0-0.9c0-0.5,0-1,0-1.5 c0.6,0,1.2-0.1,1.7-0.1c0.1-0.3,0.1-0.6,0.2-0.9c0.8,0,1.6,0,2.4,0c0,0.9,0.5,1,1.3,1c2.3,0,3.4,1.1,3.4,3.4c0,0.6,0,1.1,0,1.8 c1.9,0,3.1,0.9,3.4,2.8c0,1.2,0,2.4,0,3.6C39.5,26.6,38.8,27.4,37.2,27.4z M32,16.4c0,0.8,0,1.6,0,2.5c0.7,0,1.3,0,1.9,0 C34.5,16.4,34.1,15.9,32,16.4z M37.4,16.1c0-0.3-0.2-0.7,0-1c0.2-0.5,0.5-1.2,1-1.4c0.6-0.3,1.2,0.2,1.5,0.8c0,0.1,0.1,0.1,0.2,0.2 c0,0.1,0,0.1,0,0.2C39.5,16.1,38.6,16.3,37.4,16.1z M24.9,27.5c-2.3,0-4.6,0-6.9,0c0.5-2.4,0.7-2.5,3.5-2.6c0-2.8,0-5.7,0-8.6 c-0.5,0-1-0.1-1.6-0.1c0-0.8,0-1.6,0-2.5c2,0,3.9,0,6,0c0,0.8,0,1.6,0,2.5c-0.5,0-1,0.1-1.6,0.1c0,2.9,0,5.7,0,8.7 c0.9,0,1.7,0,2.5,0c0.1,0.2,0.1,0.2,0.1,0.3C27.1,27.5,27.1,27.5,24.9,27.5z M18.6,21.6c0,0.1,0,0.1,0,0.2c-0.3,0.6-0.5,1.5-1,1.6 c-1,0.2-2.1,0.1-3.1,0c-0.7-0.1-0.7-0.7-0.5-1.3c0.3-0.7,0.6-1.4,0.9-2.1c0.1-0.3,0.2-0.7,0.3-1C15.2,19,15.2,19,15.2,19 c-2.3-0.3-2.4-0.5-1.4-2.6c0.4-0.8,0.9-1.6,1.1-2.5c0.3-1.1,1-1.5,2.1-1.3c0.3,0,0.5,0,1,0c-0.4,1-0.8,1.8-1.1,2.6 c-0.5,1.2-0.4,1.3,0.8,1.3c0.4,0,0.8,0,1.4,0c-0.5,1.1-0.9,2.1-1.3,3.1C16.9,21.3,16.9,21.3,18.6,21.6z M15.7,24.9 c0.6,0,1.2,0,1.9,0c-0.3,0.8-0.6,1.5-1,2.1c-0.1,0.2-0.4,0.4-0.7,0.4c-1.2,0-2.3,0-3.6,0C13.3,24.9,13.3,24.9,15.7,24.9z M9.2,16.5 c0.9,0,1.7,0,2.5,0c0.2,1.9,0.2,3.7,0.5,5.6c0.2,1.5-0.6,2.5-1.2,3.9C9.2,22.9,9.7,19.7,9.2,16.5z M7.5,24.7c0,1.9-0.7,2.6-2.5,2.8 c-0.7,0.1-1.1-0.1-1.3-0.8c-0.1-0.4-0.3-0.8-0.5-1.3c1.7-0.1,1.7-0.1,1.7-1.8C5,20.3,5,17,5,13.7c0-1.2,0.6-1,1.4-1 c0.8,0,1.2,0,1.2,1C7.5,17.4,7.6,21,7.5,24.7z M0,23.3c0-0.1,0-0.3,0-0.4c0.2-1,0.4-2,0.5-3c0.1-1.1,0.2-2.1,0.2-3.3 c0.9,0,1.7,0,2.6,0c-0.4,3.1,0,6.4-1.8,9.4C0.9,25,0.5,24.1,0,23.3z"/>
    </symbol>

  </defs>
</svg>